<mxfile host="app.diagrams.net" modified="2023-12-05T09:24:39.456Z" agent="Mozilla/5.0 (Windows NT 10.0; Win64; x64) AppleWebKit/537.36 (KHTML, like Gecko) Chrome/119.0.0.0 Safari/537.36" etag="Ok1nvRPVO9lyDNiJdHss" version="22.1.5" type="github">
  <diagram id="zaWJiXrV2pYRNrwPF-RD" name="UC 01 Встреча">
    <mxGraphModel dx="1819" dy="684" grid="1" gridSize="10" guides="1" tooltips="1" connect="1" arrows="1" fold="1" page="1" pageScale="1" pageWidth="850" pageHeight="1100" math="0" shadow="0">
      <root>
        <mxCell id="0" />
        <mxCell id="1" parent="0" />
        <object label="" id="yTYce_UorvAzZyGLI9FE-1">
          <mxCell style="swimlane;html=1;startSize=20;fontStyle=0;collapsible=0;horizontal=0;swimlaneLine=1;swimlaneFillColor=#ffffff;strokeWidth=2;whiteSpace=wrap;" vertex="1" parent="1">
            <mxGeometry y="110" width="1520" height="200" as="geometry" />
          </mxCell>
        </object>
        <mxCell id="yTYce_UorvAzZyGLI9FE-2" value="Клиент" style="text;strokeColor=none;align=center;fillColor=none;html=1;verticalAlign=middle;whiteSpace=wrap;rounded=0;rotation=-90;" vertex="1" parent="yTYce_UorvAzZyGLI9FE-1">
          <mxGeometry x="-20" y="50" width="60" height="30" as="geometry" />
        </mxCell>
        <mxCell id="yTYce_UorvAzZyGLI9FE-50" value="" style="points=[[0.25,0,0],[0.5,0,0],[0.75,0,0],[1,0.25,0],[1,0.5,0],[1,0.75,0],[0.75,1,0],[0.5,1,0],[0.25,1,0],[0,0.75,0],[0,0.5,0],[0,0.25,0]];shape=mxgraph.bpmn.task;whiteSpace=wrap;rectStyle=rounded;size=10;html=1;container=1;expand=0;collapsible=0;taskMarker=abstract;" vertex="1" parent="yTYce_UorvAzZyGLI9FE-1">
          <mxGeometry x="465" y="22.5" width="110" height="85" as="geometry" />
        </mxCell>
        <mxCell id="yTYce_UorvAzZyGLI9FE-51" value="Подтверждает Встречу" style="text;strokeColor=none;align=center;fillColor=none;html=1;verticalAlign=middle;whiteSpace=wrap;rounded=0;" vertex="1" parent="yTYce_UorvAzZyGLI9FE-50">
          <mxGeometry x="27.5" y="30" width="55" height="30" as="geometry" />
        </mxCell>
        <mxCell id="yTYce_UorvAzZyGLI9FE-93" value="Предоставляет документ удостоверяющий личность" style="points=[[0.25,0,0],[0.5,0,0],[0.75,0,0],[1,0.25,0],[1,0.5,0],[1,0.75,0],[0.75,1,0],[0.5,1,0],[0.25,1,0],[0,0.75,0],[0,0.5,0],[0,0.25,0]];shape=mxgraph.bpmn.task;whiteSpace=wrap;rectStyle=rounded;size=10;html=1;container=1;expand=0;collapsible=0;taskMarker=abstract;" vertex="1" parent="yTYce_UorvAzZyGLI9FE-1">
          <mxGeometry x="720" y="25" width="120" height="80" as="geometry" />
        </mxCell>
        <mxCell id="yTYce_UorvAzZyGLI9FE-127" value="" style="points=[[0.145,0.145,0],[0.5,0,0],[0.855,0.145,0],[1,0.5,0],[0.855,0.855,0],[0.5,1,0],[0.145,0.855,0],[0,0.5,0]];shape=mxgraph.bpmn.event;html=1;verticalLabelPosition=bottom;labelBackgroundColor=#ffffff;verticalAlign=top;align=center;perimeter=ellipsePerimeter;outlineConnect=0;aspect=fixed;outline=throwing;symbol=message;" vertex="1" parent="yTYce_UorvAzZyGLI9FE-1">
          <mxGeometry x="530" y="3" width="50" height="50" as="geometry" />
        </mxCell>
        <mxCell id="yTYce_UorvAzZyGLI9FE-128" style="edgeStyle=orthogonalEdgeStyle;rounded=0;orthogonalLoop=1;jettySize=auto;html=1;entryX=0;entryY=0.5;entryDx=0;entryDy=0;entryPerimeter=0;" edge="1" parent="yTYce_UorvAzZyGLI9FE-1" source="yTYce_UorvAzZyGLI9FE-50" target="yTYce_UorvAzZyGLI9FE-93">
          <mxGeometry relative="1" as="geometry" />
        </mxCell>
        <mxCell id="yTYce_UorvAzZyGLI9FE-129" value="Начало&lt;br&gt;Встречи" style="edgeLabel;html=1;align=center;verticalAlign=middle;resizable=0;points=[];" vertex="1" connectable="0" parent="yTYce_UorvAzZyGLI9FE-128">
          <mxGeometry x="-0.0759" y="-1" relative="1" as="geometry">
            <mxPoint as="offset" />
          </mxGeometry>
        </mxCell>
        <mxCell id="yTYce_UorvAzZyGLI9FE-141" style="edgeStyle=orthogonalEdgeStyle;rounded=0;orthogonalLoop=1;jettySize=auto;html=1;" edge="1" parent="yTYce_UorvAzZyGLI9FE-1" source="yTYce_UorvAzZyGLI9FE-131">
          <mxGeometry relative="1" as="geometry">
            <mxPoint x="1050" y="65" as="targetPoint" />
          </mxGeometry>
        </mxCell>
        <mxCell id="yTYce_UorvAzZyGLI9FE-131" value="Проходит идентификацию" style="points=[[0.25,0,0],[0.5,0,0],[0.75,0,0],[1,0.25,0],[1,0.5,0],[1,0.75,0],[0.75,1,0],[0.5,1,0],[0.25,1,0],[0,0.75,0],[0,0.5,0],[0,0.25,0]];shape=mxgraph.bpmn.task;whiteSpace=wrap;rectStyle=rounded;size=10;html=1;container=1;expand=0;collapsible=0;taskMarker=abstract;" vertex="1" parent="yTYce_UorvAzZyGLI9FE-1">
          <mxGeometry x="890" y="25" width="120" height="80" as="geometry" />
        </mxCell>
        <mxCell id="yTYce_UorvAzZyGLI9FE-132" style="edgeStyle=orthogonalEdgeStyle;rounded=0;orthogonalLoop=1;jettySize=auto;html=1;entryX=0;entryY=0.5;entryDx=0;entryDy=0;entryPerimeter=0;" edge="1" parent="yTYce_UorvAzZyGLI9FE-1" source="yTYce_UorvAzZyGLI9FE-93" target="yTYce_UorvAzZyGLI9FE-131">
          <mxGeometry relative="1" as="geometry" />
        </mxCell>
        <mxCell id="yTYce_UorvAzZyGLI9FE-133" value="" style="points=[[0.145,0.145,0],[0.5,0,0],[0.855,0.145,0],[1,0.5,0],[0.855,0.855,0],[0.5,1,0],[0.145,0.855,0],[0,0.5,0]];shape=mxgraph.bpmn.event;html=1;verticalLabelPosition=bottom;labelBackgroundColor=#ffffff;verticalAlign=top;align=center;perimeter=ellipsePerimeter;outlineConnect=0;aspect=fixed;outline=end;symbol=terminate2;" vertex="1" parent="yTYce_UorvAzZyGLI9FE-1">
          <mxGeometry x="1055" y="140" width="40" height="40" as="geometry" />
        </mxCell>
        <mxCell id="yTYce_UorvAzZyGLI9FE-138" value="" style="points=[[0.25,0.25,0],[0.5,0,0],[0.75,0.25,0],[1,0.5,0],[0.75,0.75,0],[0.5,1,0],[0.25,0.75,0],[0,0.5,0]];shape=mxgraph.bpmn.gateway2;html=1;verticalLabelPosition=bottom;labelBackgroundColor=#ffffff;verticalAlign=top;align=center;perimeter=rhombusPerimeter;outlineConnect=0;outline=none;symbol=none;gwType=exclusive;" vertex="1" parent="yTYce_UorvAzZyGLI9FE-1">
          <mxGeometry x="1050" y="40" width="50" height="50" as="geometry" />
        </mxCell>
        <mxCell id="yTYce_UorvAzZyGLI9FE-139" style="edgeStyle=orthogonalEdgeStyle;rounded=0;orthogonalLoop=1;jettySize=auto;html=1;entryX=0.5;entryY=0;entryDx=0;entryDy=0;entryPerimeter=0;" edge="1" parent="yTYce_UorvAzZyGLI9FE-1" source="yTYce_UorvAzZyGLI9FE-138" target="yTYce_UorvAzZyGLI9FE-133">
          <mxGeometry relative="1" as="geometry" />
        </mxCell>
        <mxCell id="yTYce_UorvAzZyGLI9FE-142" value="Нет" style="edgeLabel;html=1;align=center;verticalAlign=middle;resizable=0;points=[];" vertex="1" connectable="0" parent="yTYce_UorvAzZyGLI9FE-139">
          <mxGeometry x="-0.2" y="-1" relative="1" as="geometry">
            <mxPoint as="offset" />
          </mxGeometry>
        </mxCell>
        <mxCell id="yTYce_UorvAzZyGLI9FE-150" style="edgeStyle=orthogonalEdgeStyle;rounded=0;orthogonalLoop=1;jettySize=auto;html=1;" edge="1" parent="yTYce_UorvAzZyGLI9FE-1" source="yTYce_UorvAzZyGLI9FE-144">
          <mxGeometry relative="1" as="geometry">
            <mxPoint x="1310" y="65" as="targetPoint" />
          </mxGeometry>
        </mxCell>
        <mxCell id="yTYce_UorvAzZyGLI9FE-144" value="Получает Карту" style="points=[[0.25,0,0],[0.5,0,0],[0.75,0,0],[1,0.25,0],[1,0.5,0],[1,0.75,0],[0.75,1,0],[0.5,1,0],[0.25,1,0],[0,0.75,0],[0,0.5,0],[0,0.25,0]];shape=mxgraph.bpmn.task;whiteSpace=wrap;rectStyle=rounded;size=10;html=1;container=1;expand=0;collapsible=0;taskMarker=manual;" vertex="1" parent="yTYce_UorvAzZyGLI9FE-1">
          <mxGeometry x="1155" y="25" width="120" height="80" as="geometry" />
        </mxCell>
        <mxCell id="yTYce_UorvAzZyGLI9FE-145" style="edgeStyle=orthogonalEdgeStyle;rounded=0;orthogonalLoop=1;jettySize=auto;html=1;entryX=0;entryY=0.5;entryDx=0;entryDy=0;entryPerimeter=0;" edge="1" parent="yTYce_UorvAzZyGLI9FE-1" source="yTYce_UorvAzZyGLI9FE-138" target="yTYce_UorvAzZyGLI9FE-144">
          <mxGeometry relative="1" as="geometry" />
        </mxCell>
        <mxCell id="q8dqV7ErFW5JXo2_TfEL-1" value="Да" style="edgeLabel;html=1;align=center;verticalAlign=middle;resizable=0;points=[];" vertex="1" connectable="0" parent="yTYce_UorvAzZyGLI9FE-145">
          <mxGeometry x="-0.2" y="-1" relative="1" as="geometry">
            <mxPoint as="offset" />
          </mxGeometry>
        </mxCell>
        <mxCell id="yTYce_UorvAzZyGLI9FE-147" value="" style="points=[[0.145,0.145,0],[0.5,0,0],[0.855,0.145,0],[1,0.5,0],[0.855,0.855,0],[0.5,1,0],[0.145,0.855,0],[0,0.5,0]];shape=mxgraph.bpmn.event;html=1;verticalLabelPosition=bottom;labelBackgroundColor=#ffffff;verticalAlign=top;align=center;perimeter=ellipsePerimeter;outlineConnect=0;aspect=fixed;outline=standard;symbol=general;" vertex="1" parent="yTYce_UorvAzZyGLI9FE-1">
          <mxGeometry x="340" y="40" width="50" height="50" as="geometry" />
        </mxCell>
        <mxCell id="yTYce_UorvAzZyGLI9FE-148" style="edgeStyle=orthogonalEdgeStyle;rounded=0;orthogonalLoop=1;jettySize=auto;html=1;entryX=0;entryY=0.5;entryDx=0;entryDy=0;entryPerimeter=0;" edge="1" parent="yTYce_UorvAzZyGLI9FE-1" source="yTYce_UorvAzZyGLI9FE-147" target="yTYce_UorvAzZyGLI9FE-50">
          <mxGeometry relative="1" as="geometry" />
        </mxCell>
        <mxCell id="yTYce_UorvAzZyGLI9FE-191" value="" style="points=[[0.145,0.145,0],[0.5,0,0],[0.855,0.145,0],[1,0.5,0],[0.855,0.855,0],[0.5,1,0],[0.145,0.855,0],[0,0.5,0]];shape=mxgraph.bpmn.event;html=1;verticalLabelPosition=bottom;labelBackgroundColor=#ffffff;verticalAlign=top;align=center;perimeter=ellipsePerimeter;outlineConnect=0;aspect=fixed;outline=end;symbol=terminate2;" vertex="1" parent="yTYce_UorvAzZyGLI9FE-1">
          <mxGeometry x="1310" y="45" width="40" height="40" as="geometry" />
        </mxCell>
        <mxCell id="yTYce_UorvAzZyGLI9FE-98" value="Паспорт" style="shape=mxgraph.bpmn.data;labelPosition=center;verticalLabelPosition=bottom;align=center;verticalAlign=top;size=15;html=1;" vertex="1" parent="yTYce_UorvAzZyGLI9FE-1">
          <mxGeometry x="790" y="130" width="30" height="40" as="geometry" />
        </mxCell>
        <object label="" id="yTYce_UorvAzZyGLI9FE-3">
          <mxCell style="swimlane;html=1;startSize=20;fontStyle=0;collapsible=0;horizontal=0;swimlaneLine=1;swimlaneFillColor=#ffffff;strokeWidth=2;whiteSpace=wrap;" vertex="1" parent="1">
            <mxGeometry y="330" width="1520" height="420" as="geometry" />
          </mxCell>
        </object>
        <mxCell id="yTYce_UorvAzZyGLI9FE-4" value="Курьер" style="text;strokeColor=none;align=center;fillColor=none;html=1;verticalAlign=middle;whiteSpace=wrap;rounded=0;rotation=-90;" vertex="1" parent="yTYce_UorvAzZyGLI9FE-3">
          <mxGeometry x="-20" y="120" width="60" height="30" as="geometry" />
        </mxCell>
        <mxCell id="yTYce_UorvAzZyGLI9FE-8" value="Авторизуется в Системе" style="points=[[0.25,0,0],[0.5,0,0],[0.75,0,0],[1,0.25,0],[1,0.5,0],[1,0.75,0],[0.75,1,0],[0.5,1,0],[0.25,1,0],[0,0.75,0],[0,0.5,0],[0,0.25,0]];shape=mxgraph.bpmn.task;whiteSpace=wrap;rectStyle=rounded;size=10;html=1;container=1;expand=0;collapsible=0;taskMarker=abstract;isLoopSub=1;" vertex="1" parent="yTYce_UorvAzZyGLI9FE-3">
          <mxGeometry x="170" y="64.88" width="100" height="92.25" as="geometry" />
        </mxCell>
        <mxCell id="yTYce_UorvAzZyGLI9FE-29" value="" style="points=[[0.145,0.145,0],[0.5,0,0],[0.855,0.145,0],[1,0.5,0],[0.855,0.855,0],[0.5,1,0],[0.145,0.855,0],[0,0.5,0]];shape=mxgraph.bpmn.event;html=1;verticalLabelPosition=bottom;labelBackgroundColor=#ffffff;verticalAlign=top;align=center;perimeter=ellipsePerimeter;outlineConnect=0;aspect=fixed;outline=standard;symbol=timer;" vertex="1" parent="yTYce_UorvAzZyGLI9FE-3">
          <mxGeometry x="40" y="86.01" width="50" height="50" as="geometry" />
        </mxCell>
        <mxCell id="yTYce_UorvAzZyGLI9FE-40" value="Получает атрибуты Встречи" style="points=[[0.25,0,0],[0.5,0,0],[0.75,0,0],[1,0.25,0],[1,0.5,0],[1,0.75,0],[0.75,1,0],[0.5,1,0],[0.25,1,0],[0,0.75,0],[0,0.5,0],[0,0.25,0]];shape=mxgraph.bpmn.task;whiteSpace=wrap;rectStyle=rounded;size=10;html=1;container=1;expand=0;collapsible=0;taskMarker=abstract;isLoopSub=1;" vertex="1" parent="yTYce_UorvAzZyGLI9FE-3">
          <mxGeometry x="320" y="64.88" width="100" height="92.25" as="geometry" />
        </mxCell>
        <mxCell id="yTYce_UorvAzZyGLI9FE-47" value="" style="edgeStyle=elbowEdgeStyle;fontSize=12;html=1;endArrow=blockThin;endFill=1;rounded=0;entryX=0;entryY=0.5;entryDx=0;entryDy=0;entryPerimeter=0;exitX=1;exitY=0.5;exitDx=0;exitDy=0;exitPerimeter=0;" edge="1" parent="yTYce_UorvAzZyGLI9FE-3" source="yTYce_UorvAzZyGLI9FE-8" target="yTYce_UorvAzZyGLI9FE-40">
          <mxGeometry width="160" relative="1" as="geometry">
            <mxPoint x="280" y="110" as="sourcePoint" />
            <mxPoint x="530" y="210" as="targetPoint" />
          </mxGeometry>
        </mxCell>
        <mxCell id="yTYce_UorvAzZyGLI9FE-64" value="" style="edgeStyle=orthogonalEdgeStyle;rounded=0;orthogonalLoop=1;jettySize=auto;html=1;" edge="1" parent="yTYce_UorvAzZyGLI9FE-3" source="yTYce_UorvAzZyGLI9FE-49" target="yTYce_UorvAzZyGLI9FE-59">
          <mxGeometry relative="1" as="geometry" />
        </mxCell>
        <mxCell id="yTYce_UorvAzZyGLI9FE-79" style="edgeStyle=orthogonalEdgeStyle;rounded=0;orthogonalLoop=1;jettySize=auto;html=1;exitX=0.5;exitY=0;exitDx=0;exitDy=0;exitPerimeter=0;" edge="1" parent="yTYce_UorvAzZyGLI9FE-3" source="yTYce_UorvAzZyGLI9FE-49">
          <mxGeometry relative="1" as="geometry">
            <mxPoint x="520" y="60" as="targetPoint" />
          </mxGeometry>
        </mxCell>
        <mxCell id="yTYce_UorvAzZyGLI9FE-49" value="" style="points=[[0.25,0,0],[0.5,0,0],[0.75,0,0],[1,0.25,0],[1,0.5,0],[1,0.75,0],[0.75,1,0],[0.5,1,0],[0.25,1,0],[0,0.75,0],[0,0.5,0],[0,0.25,0]];shape=mxgraph.bpmn.task;whiteSpace=wrap;rectStyle=rounded;size=10;html=1;container=1;expand=0;collapsible=0;taskMarker=abstract;" vertex="1" parent="yTYce_UorvAzZyGLI9FE-3">
          <mxGeometry x="470" y="60" width="100" height="98.56" as="geometry" />
        </mxCell>
        <mxCell id="yTYce_UorvAzZyGLI9FE-52" value="Подтверждает Встречу" style="text;strokeColor=none;align=center;fillColor=none;html=1;verticalAlign=middle;whiteSpace=wrap;rounded=0;" vertex="1" parent="yTYce_UorvAzZyGLI9FE-49">
          <mxGeometry x="25" y="32.24544995794786" width="50" height="31.084945332211944" as="geometry" />
        </mxCell>
        <mxCell id="yTYce_UorvAzZyGLI9FE-54" value="" style="edgeStyle=elbowEdgeStyle;fontSize=12;html=1;endArrow=blockThin;endFill=1;rounded=0;" edge="1" parent="yTYce_UorvAzZyGLI9FE-3">
          <mxGeometry width="160" relative="1" as="geometry">
            <mxPoint x="420" y="110.5" as="sourcePoint" />
            <mxPoint x="470" y="111" as="targetPoint" />
          </mxGeometry>
        </mxCell>
        <mxCell id="yTYce_UorvAzZyGLI9FE-88" style="edgeStyle=orthogonalEdgeStyle;rounded=0;orthogonalLoop=1;jettySize=auto;html=1;" edge="1" parent="yTYce_UorvAzZyGLI9FE-3" source="yTYce_UorvAzZyGLI9FE-59">
          <mxGeometry relative="1" as="geometry">
            <mxPoint x="720" y="109.27999999999997" as="targetPoint" />
          </mxGeometry>
        </mxCell>
        <mxCell id="yTYce_UorvAzZyGLI9FE-89" value="Да" style="edgeLabel;html=1;align=center;verticalAlign=middle;resizable=0;points=[];" vertex="1" connectable="0" parent="yTYce_UorvAzZyGLI9FE-88">
          <mxGeometry x="-0.0741" relative="1" as="geometry">
            <mxPoint as="offset" />
          </mxGeometry>
        </mxCell>
        <mxCell id="yTYce_UorvAzZyGLI9FE-102" value="" style="edgeStyle=orthogonalEdgeStyle;rounded=0;orthogonalLoop=1;jettySize=auto;html=1;" edge="1" parent="yTYce_UorvAzZyGLI9FE-3" source="yTYce_UorvAzZyGLI9FE-59" target="yTYce_UorvAzZyGLI9FE-100">
          <mxGeometry relative="1" as="geometry" />
        </mxCell>
        <mxCell id="yTYce_UorvAzZyGLI9FE-103" value="Нет" style="edgeLabel;html=1;align=center;verticalAlign=middle;resizable=0;points=[];" vertex="1" connectable="0" parent="yTYce_UorvAzZyGLI9FE-102">
          <mxGeometry x="-0.1869" y="1" relative="1" as="geometry">
            <mxPoint as="offset" />
          </mxGeometry>
        </mxCell>
        <mxCell id="yTYce_UorvAzZyGLI9FE-59" value="" style="points=[[0.25,0.25,0],[0.5,0,0],[0.75,0.25,0],[1,0.5,0],[0.75,0.75,0],[0.5,1,0],[0.25,0.75,0],[0,0.5,0]];shape=mxgraph.bpmn.gateway2;html=1;verticalLabelPosition=bottom;labelBackgroundColor=#ffffff;verticalAlign=top;align=center;perimeter=rhombusPerimeter;outlineConnect=0;outline=none;symbol=none;gwType=exclusive;" vertex="1" parent="yTYce_UorvAzZyGLI9FE-3">
          <mxGeometry x="610" y="84.28" width="50" height="50" as="geometry" />
        </mxCell>
        <mxCell id="yTYce_UorvAzZyGLI9FE-105" value="" style="edgeStyle=orthogonalEdgeStyle;rounded=0;orthogonalLoop=1;jettySize=auto;html=1;" edge="1" parent="yTYce_UorvAzZyGLI9FE-3" source="yTYce_UorvAzZyGLI9FE-90" target="yTYce_UorvAzZyGLI9FE-104">
          <mxGeometry relative="1" as="geometry">
            <Array as="points">
              <mxPoint x="880" y="145" />
              <mxPoint x="880" y="145" />
            </Array>
          </mxGeometry>
        </mxCell>
        <mxCell id="yTYce_UorvAzZyGLI9FE-90" value="Идентификация Клиента" style="points=[[0.25,0,0],[0.5,0,0],[0.75,0,0],[1,0.25,0],[1,0.5,0],[1,0.75,0],[0.75,1,0],[0.5,1,0],[0.25,1,0],[0,0.75,0],[0,0.5,0],[0,0.25,0]];shape=mxgraph.bpmn.task;whiteSpace=wrap;rectStyle=rounded;size=10;html=1;container=1;expand=0;collapsible=0;taskMarker=businessRule;" vertex="1" parent="yTYce_UorvAzZyGLI9FE-3">
          <mxGeometry x="720" y="70" width="120" height="87.13" as="geometry" />
        </mxCell>
        <mxCell id="yTYce_UorvAzZyGLI9FE-120" value="" style="edgeStyle=orthogonalEdgeStyle;rounded=0;orthogonalLoop=1;jettySize=auto;html=1;" edge="1" parent="yTYce_UorvAzZyGLI9FE-3" source="yTYce_UorvAzZyGLI9FE-100" target="yTYce_UorvAzZyGLI9FE-119">
          <mxGeometry relative="1" as="geometry" />
        </mxCell>
        <mxCell id="yTYce_UorvAzZyGLI9FE-100" value="" style="points=[[0.145,0.145,0],[0.5,0,0],[0.855,0.145,0],[1,0.5,0],[0.855,0.855,0],[0.5,1,0],[0.145,0.855,0],[0,0.5,0]];shape=mxgraph.bpmn.event;html=1;verticalLabelPosition=bottom;labelBackgroundColor=#ffffff;verticalAlign=top;align=center;perimeter=ellipsePerimeter;outlineConnect=0;aspect=fixed;outline=end;symbol=signal;" vertex="1" parent="yTYce_UorvAzZyGLI9FE-3">
          <mxGeometry x="615" y="210" width="40" height="40" as="geometry" />
        </mxCell>
        <mxCell id="yTYce_UorvAzZyGLI9FE-113" style="edgeStyle=orthogonalEdgeStyle;rounded=0;orthogonalLoop=1;jettySize=auto;html=1;exitX=0.5;exitY=0;exitDx=0;exitDy=0;exitPerimeter=0;" edge="1" parent="yTYce_UorvAzZyGLI9FE-3" source="yTYce_UorvAzZyGLI9FE-104">
          <mxGeometry relative="1" as="geometry">
            <mxPoint x="955" y="60" as="targetPoint" />
          </mxGeometry>
        </mxCell>
        <mxCell id="yTYce_UorvAzZyGLI9FE-115" value="Нет" style="edgeLabel;html=1;align=center;verticalAlign=middle;resizable=0;points=[];" vertex="1" connectable="0" parent="yTYce_UorvAzZyGLI9FE-113">
          <mxGeometry x="-0.1075" y="2" relative="1" as="geometry">
            <mxPoint as="offset" />
          </mxGeometry>
        </mxCell>
        <mxCell id="yTYce_UorvAzZyGLI9FE-116" value="Идентификация&lt;br&gt;неуспешна" style="edgeLabel;html=1;align=center;verticalAlign=middle;resizable=0;points=[];" vertex="1" connectable="0" parent="yTYce_UorvAzZyGLI9FE-113">
          <mxGeometry x="-0.1736" y="3" relative="1" as="geometry">
            <mxPoint as="offset" />
          </mxGeometry>
        </mxCell>
        <mxCell id="yTYce_UorvAzZyGLI9FE-155" style="edgeStyle=orthogonalEdgeStyle;rounded=0;orthogonalLoop=1;jettySize=auto;html=1;exitX=1;exitY=0.5;exitDx=0;exitDy=0;exitPerimeter=0;" edge="1" parent="yTYce_UorvAzZyGLI9FE-3" source="yTYce_UorvAzZyGLI9FE-104">
          <mxGeometry relative="1" as="geometry">
            <mxPoint x="1030" y="145" as="targetPoint" />
          </mxGeometry>
        </mxCell>
        <mxCell id="yTYce_UorvAzZyGLI9FE-156" value="Да" style="edgeLabel;html=1;align=center;verticalAlign=middle;resizable=0;points=[];" vertex="1" connectable="0" parent="yTYce_UorvAzZyGLI9FE-155">
          <mxGeometry x="-0.01" relative="1" as="geometry">
            <mxPoint as="offset" />
          </mxGeometry>
        </mxCell>
        <mxCell id="yTYce_UorvAzZyGLI9FE-104" value="" style="points=[[0.25,0.25,0],[0.5,0,0],[0.75,0.25,0],[1,0.5,0],[0.75,0.75,0],[0.5,1,0],[0.25,0.75,0],[0,0.5,0]];shape=mxgraph.bpmn.gateway2;html=1;verticalLabelPosition=bottom;labelBackgroundColor=#ffffff;verticalAlign=top;align=center;perimeter=rhombusPerimeter;outlineConnect=0;outline=none;symbol=none;gwType=exclusive;" vertex="1" parent="yTYce_UorvAzZyGLI9FE-3">
          <mxGeometry x="930" y="119.99999999999997" width="50" height="50" as="geometry" />
        </mxCell>
        <mxCell id="yTYce_UorvAzZyGLI9FE-123" value="" style="edgeStyle=orthogonalEdgeStyle;rounded=0;orthogonalLoop=1;jettySize=auto;html=1;" edge="1" parent="yTYce_UorvAzZyGLI9FE-3" source="yTYce_UorvAzZyGLI9FE-108" target="yTYce_UorvAzZyGLI9FE-121">
          <mxGeometry relative="1" as="geometry" />
        </mxCell>
        <mxCell id="yTYce_UorvAzZyGLI9FE-108" value="" style="points=[[0.145,0.145,0],[0.5,0,0],[0.855,0.145,0],[1,0.5,0],[0.855,0.855,0],[0.5,1,0],[0.145,0.855,0],[0,0.5,0]];shape=mxgraph.bpmn.event;html=1;verticalLabelPosition=bottom;labelBackgroundColor=#ffffff;verticalAlign=top;align=center;perimeter=ellipsePerimeter;outlineConnect=0;aspect=fixed;outline=end;symbol=signal;" vertex="1" parent="yTYce_UorvAzZyGLI9FE-3">
          <mxGeometry x="935" y="17.5" width="40" height="40" as="geometry" />
        </mxCell>
        <mxCell id="yTYce_UorvAzZyGLI9FE-118" value="Необходимо&lt;br&gt;назначить&lt;br&gt;новую встречу" style="html=1;shape=mxgraph.flowchart.annotation_2;align=left;labelPosition=right;" vertex="1" parent="yTYce_UorvAzZyGLI9FE-3">
          <mxGeometry x="660" y="190" width="50" height="70" as="geometry" />
        </mxCell>
        <mxCell id="yTYce_UorvAzZyGLI9FE-119" value="" style="points=[[0.145,0.145,0],[0.5,0,0],[0.855,0.145,0],[1,0.5,0],[0.855,0.855,0],[0.5,1,0],[0.145,0.855,0],[0,0.5,0]];shape=mxgraph.bpmn.event;html=1;verticalLabelPosition=bottom;labelBackgroundColor=#ffffff;verticalAlign=top;align=center;perimeter=ellipsePerimeter;outlineConnect=0;aspect=fixed;outline=end;symbol=terminate2;" vertex="1" parent="yTYce_UorvAzZyGLI9FE-3">
          <mxGeometry x="530" y="207.5" width="45" height="45" as="geometry" />
        </mxCell>
        <mxCell id="yTYce_UorvAzZyGLI9FE-121" value="" style="points=[[0.145,0.145,0],[0.5,0,0],[0.855,0.145,0],[1,0.5,0],[0.855,0.855,0],[0.5,1,0],[0.145,0.855,0],[0,0.5,0]];shape=mxgraph.bpmn.event;html=1;verticalLabelPosition=bottom;labelBackgroundColor=#ffffff;verticalAlign=top;align=center;perimeter=ellipsePerimeter;outlineConnect=0;aspect=fixed;outline=end;symbol=terminate2;" vertex="1" parent="yTYce_UorvAzZyGLI9FE-3">
          <mxGeometry x="860" y="20" width="35" height="35" as="geometry" />
        </mxCell>
        <mxCell id="yTYce_UorvAzZyGLI9FE-124" value="Клиент&lt;br&gt;не прошел&lt;br&gt;идентификацию" style="html=1;shape=mxgraph.flowchart.annotation_2;align=left;labelPosition=right;rotation=0;" vertex="1" parent="yTYce_UorvAzZyGLI9FE-3">
          <mxGeometry x="980" y="9.12" width="35" height="56.88" as="geometry" />
        </mxCell>
        <mxCell id="yTYce_UorvAzZyGLI9FE-154" style="edgeStyle=orthogonalEdgeStyle;rounded=0;orthogonalLoop=1;jettySize=auto;html=1;entryX=0;entryY=0.5;entryDx=0;entryDy=0;entryPerimeter=0;" edge="1" parent="yTYce_UorvAzZyGLI9FE-3" source="yTYce_UorvAzZyGLI9FE-152" target="yTYce_UorvAzZyGLI9FE-186">
          <mxGeometry relative="1" as="geometry">
            <mxPoint x="1320" y="145" as="targetPoint" />
          </mxGeometry>
        </mxCell>
        <mxCell id="yTYce_UorvAzZyGLI9FE-152" value="Передаёт Карту Клиенту" style="points=[[0.25,0,0],[0.5,0,0],[0.75,0,0],[1,0.25,0],[1,0.5,0],[1,0.75,0],[0.75,1,0],[0.5,1,0],[0.25,1,0],[0,0.75,0],[0,0.5,0],[0,0.25,0]];shape=mxgraph.bpmn.task;whiteSpace=wrap;rectStyle=rounded;size=10;html=1;container=1;expand=0;collapsible=0;taskMarker=manual;" vertex="1" parent="yTYce_UorvAzZyGLI9FE-3">
          <mxGeometry x="1140" y="105" width="120" height="80" as="geometry" />
        </mxCell>
        <mxCell id="yTYce_UorvAzZyGLI9FE-166" style="edgeStyle=orthogonalEdgeStyle;rounded=0;orthogonalLoop=1;jettySize=auto;html=1;" edge="1" parent="yTYce_UorvAzZyGLI9FE-3" source="yTYce_UorvAzZyGLI9FE-157">
          <mxGeometry relative="1" as="geometry">
            <mxPoint x="1055" y="210" as="targetPoint" />
          </mxGeometry>
        </mxCell>
        <mxCell id="q8dqV7ErFW5JXo2_TfEL-3" value="UC 01-02" style="edgeLabel;html=1;align=center;verticalAlign=middle;resizable=0;points=[];" vertex="1" connectable="0" parent="yTYce_UorvAzZyGLI9FE-166">
          <mxGeometry x="-0.2594" y="1" relative="1" as="geometry">
            <mxPoint as="offset" />
          </mxGeometry>
        </mxCell>
        <mxCell id="yTYce_UorvAzZyGLI9FE-157" value="" style="points=[[0.25,0.25,0],[0.5,0,0],[0.75,0.25,0],[1,0.5,0],[0.75,0.75,0],[0.5,1,0],[0.25,0.75,0],[0,0.5,0]];shape=mxgraph.bpmn.gateway2;html=1;verticalLabelPosition=bottom;labelBackgroundColor=#ffffff;verticalAlign=top;align=center;perimeter=rhombusPerimeter;outlineConnect=0;outline=none;symbol=none;gwType=parallel;" vertex="1" parent="yTYce_UorvAzZyGLI9FE-3">
          <mxGeometry x="1030" y="120" width="50" height="50" as="geometry" />
        </mxCell>
        <mxCell id="yTYce_UorvAzZyGLI9FE-159" style="edgeStyle=orthogonalEdgeStyle;rounded=0;orthogonalLoop=1;jettySize=auto;html=1;entryX=0;entryY=0.5;entryDx=0;entryDy=0;entryPerimeter=0;" edge="1" parent="yTYce_UorvAzZyGLI9FE-3" source="yTYce_UorvAzZyGLI9FE-157" target="yTYce_UorvAzZyGLI9FE-152">
          <mxGeometry relative="1" as="geometry" />
        </mxCell>
        <mxCell id="yTYce_UorvAzZyGLI9FE-162" style="edgeStyle=orthogonalEdgeStyle;rounded=0;orthogonalLoop=1;jettySize=auto;html=1;entryX=0;entryY=0.5;entryDx=0;entryDy=0;entryPerimeter=0;" edge="1" parent="yTYce_UorvAzZyGLI9FE-3" source="yTYce_UorvAzZyGLI9FE-29" target="yTYce_UorvAzZyGLI9FE-8">
          <mxGeometry relative="1" as="geometry" />
        </mxCell>
        <mxCell id="yTYce_UorvAzZyGLI9FE-163" value="UC 01-01" style="edgeLabel;html=1;align=center;verticalAlign=middle;resizable=0;points=[];" vertex="1" connectable="0" parent="yTYce_UorvAzZyGLI9FE-162">
          <mxGeometry x="0.075" relative="1" as="geometry">
            <mxPoint as="offset" />
          </mxGeometry>
        </mxCell>
        <mxCell id="yTYce_UorvAzZyGLI9FE-165" value="Отправляет новый статус Карты" style="points=[[0.25,0,0],[0.5,0,0],[0.75,0,0],[1,0.25,0],[1,0.5,0],[1,0.75,0],[0.75,1,0],[0.5,1,0],[0.25,1,0],[0,0.75,0],[0,0.5,0],[0,0.25,0]];shape=mxgraph.bpmn.task;whiteSpace=wrap;rectStyle=rounded;size=10;html=1;container=1;expand=0;collapsible=0;taskMarker=send;" vertex="1" parent="yTYce_UorvAzZyGLI9FE-3">
          <mxGeometry x="1010" y="210" width="100" height="80" as="geometry" />
        </mxCell>
        <mxCell id="yTYce_UorvAzZyGLI9FE-19" value="Атрибуты&lt;br&gt;Встречи" style="html=1;shape=mxgraph.flowchart.annotation_2;align=left;labelPosition=right;" vertex="1" parent="yTYce_UorvAzZyGLI9FE-3">
          <mxGeometry x="380" y="230" width="50" height="60" as="geometry" />
        </mxCell>
        <mxCell id="yTYce_UorvAzZyGLI9FE-177" value="" style="edgeStyle=elbowEdgeStyle;fontSize=12;html=1;endArrow=blockThin;endFill=1;startArrow=diamondThin;startFill=0;endSize=6;startSize=10;rounded=0;elbow=vertical;exitX=1;exitY=0.5;exitDx=0;exitDy=0;exitPerimeter=0;entryX=0;entryY=0.5;entryDx=0;entryDy=0;entryPerimeter=0;" edge="1" parent="yTYce_UorvAzZyGLI9FE-3" source="yTYce_UorvAzZyGLI9FE-165" target="yTYce_UorvAzZyGLI9FE-183">
          <mxGeometry width="160" relative="1" as="geometry">
            <mxPoint x="1120" y="260" as="sourcePoint" />
            <mxPoint x="1250" y="310" as="targetPoint" />
          </mxGeometry>
        </mxCell>
        <mxCell id="yTYce_UorvAzZyGLI9FE-180" value="статус&lt;br&gt;не&lt;br&gt;изменен&lt;br&gt;" style="edgeLabel;html=1;align=center;verticalAlign=middle;resizable=0;points=[];" vertex="1" connectable="0" parent="yTYce_UorvAzZyGLI9FE-177">
          <mxGeometry x="-0.1222" y="2" relative="1" as="geometry">
            <mxPoint x="1" as="offset" />
          </mxGeometry>
        </mxCell>
        <mxCell id="yTYce_UorvAzZyGLI9FE-181" value="статус&lt;br&gt;изменен" style="edgeStyle=elbowEdgeStyle;fontSize=12;html=1;endArrow=blockThin;endFill=1;startArrow=diamondThin;startFill=0;endSize=6;startSize=10;rounded=0;elbow=vertical;entryX=0;entryY=0.5;entryDx=0;entryDy=0;entryPerimeter=0;exitX=1;exitY=0.5;exitDx=0;exitDy=0;exitPerimeter=0;" edge="1" parent="yTYce_UorvAzZyGLI9FE-3">
          <mxGeometry width="160" relative="1" as="geometry">
            <mxPoint x="1110" y="229" as="sourcePoint" />
            <mxPoint x="1340" y="229" as="targetPoint" />
          </mxGeometry>
        </mxCell>
        <mxCell id="yTYce_UorvAzZyGLI9FE-185" style="edgeStyle=orthogonalEdgeStyle;rounded=0;orthogonalLoop=1;jettySize=auto;html=1;entryX=0.5;entryY=1;entryDx=0;entryDy=0;entryPerimeter=0;" edge="1" parent="yTYce_UorvAzZyGLI9FE-3" source="yTYce_UorvAzZyGLI9FE-183" target="yTYce_UorvAzZyGLI9FE-194">
          <mxGeometry relative="1" as="geometry">
            <mxPoint x="1430" y="250" as="targetPoint" />
          </mxGeometry>
        </mxCell>
        <mxCell id="yTYce_UorvAzZyGLI9FE-183" value="Изменение статуса Карты через Оператора" style="points=[[0.25,0,0],[0.5,0,0],[0.75,0,0],[1,0.25,0],[1,0.5,0],[1,0.75,0],[0.75,1,0],[0.5,1,0],[0.25,1,0],[0,0.75,0],[0,0.5,0],[0,0.25,0]];shape=mxgraph.bpmn.task;whiteSpace=wrap;rectStyle=rounded;size=10;html=1;container=1;expand=0;collapsible=0;taskMarker=user;" vertex="1" parent="yTYce_UorvAzZyGLI9FE-3">
          <mxGeometry x="1210" y="290" width="110" height="80" as="geometry" />
        </mxCell>
        <mxCell id="yTYce_UorvAzZyGLI9FE-188" value="" style="edgeStyle=orthogonalEdgeStyle;rounded=0;orthogonalLoop=1;jettySize=auto;html=1;" edge="1" parent="yTYce_UorvAzZyGLI9FE-3" source="yTYce_UorvAzZyGLI9FE-186">
          <mxGeometry relative="1" as="geometry">
            <mxPoint x="1430" y="145" as="targetPoint" />
          </mxGeometry>
        </mxCell>
        <mxCell id="yTYce_UorvAzZyGLI9FE-186" value="" style="points=[[0.25,0.25,0],[0.5,0,0],[0.75,0.25,0],[1,0.5,0],[0.75,0.75,0],[0.5,1,0],[0.25,0.75,0],[0,0.5,0]];shape=mxgraph.bpmn.gateway2;html=1;verticalLabelPosition=bottom;labelBackgroundColor=#ffffff;verticalAlign=top;align=center;perimeter=rhombusPerimeter;outlineConnect=0;outline=none;symbol=none;gwType=parallel;" vertex="1" parent="yTYce_UorvAzZyGLI9FE-3">
          <mxGeometry x="1340" y="120" width="50" height="50" as="geometry" />
        </mxCell>
        <mxCell id="yTYce_UorvAzZyGLI9FE-190" value="" style="points=[[0.145,0.145,0],[0.5,0,0],[0.855,0.145,0],[1,0.5,0],[0.855,0.855,0],[0.5,1,0],[0.145,0.855,0],[0,0.5,0]];shape=mxgraph.bpmn.event;html=1;verticalLabelPosition=bottom;labelBackgroundColor=#ffffff;verticalAlign=top;align=center;perimeter=ellipsePerimeter;outlineConnect=0;aspect=fixed;outline=end;symbol=terminate2;" vertex="1" parent="yTYce_UorvAzZyGLI9FE-3">
          <mxGeometry x="1430" y="125" width="40" height="40" as="geometry" />
        </mxCell>
        <mxCell id="yTYce_UorvAzZyGLI9FE-196" value="" style="edgeStyle=orthogonalEdgeStyle;rounded=0;orthogonalLoop=1;jettySize=auto;html=1;" edge="1" parent="yTYce_UorvAzZyGLI9FE-3" source="yTYce_UorvAzZyGLI9FE-194" target="yTYce_UorvAzZyGLI9FE-186">
          <mxGeometry relative="1" as="geometry" />
        </mxCell>
        <mxCell id="yTYce_UorvAzZyGLI9FE-194" value="" style="points=[[0.25,0.25,0],[0.5,0,0],[0.75,0.25,0],[1,0.5,0],[0.75,0.75,0],[0.5,1,0],[0.25,0.75,0],[0,0.5,0]];shape=mxgraph.bpmn.gateway2;html=1;verticalLabelPosition=bottom;labelBackgroundColor=#ffffff;verticalAlign=top;align=center;perimeter=rhombusPerimeter;outlineConnect=0;outline=none;symbol=none;gwType=exclusive;" vertex="1" parent="yTYce_UorvAzZyGLI9FE-3">
          <mxGeometry x="1340" y="205" width="50" height="50" as="geometry" />
        </mxCell>
        <object label="" id="yTYce_UorvAzZyGLI9FE-5">
          <mxCell style="swimlane;html=1;startSize=20;fontStyle=0;collapsible=0;horizontal=0;swimlaneLine=1;swimlaneFillColor=#ffffff;strokeWidth=2;whiteSpace=wrap;" vertex="1" parent="1">
            <mxGeometry y="760" width="1520" height="180" as="geometry" />
          </mxCell>
        </object>
        <mxCell id="yTYce_UorvAzZyGLI9FE-6" value="Система" style="text;strokeColor=none;align=center;fillColor=none;html=1;verticalAlign=middle;whiteSpace=wrap;rounded=0;rotation=-90;" vertex="1" parent="yTYce_UorvAzZyGLI9FE-5">
          <mxGeometry x="-20" y="85" width="60" height="30" as="geometry" />
        </mxCell>
        <mxCell id="yTYce_UorvAzZyGLI9FE-27" value="Авторизация пользователя" style="points=[[0.25,0,0],[0.5,0,0],[0.75,0,0],[1,0.25,0],[1,0.5,0],[1,0.75,0],[0.75,1,0],[0.5,1,0],[0.25,1,0],[0,0.75,0],[0,0.5,0],[0,0.25,0]];shape=mxgraph.bpmn.task;whiteSpace=wrap;rectStyle=rounded;size=10;html=1;container=1;expand=0;collapsible=0;taskMarker=service;" vertex="1" parent="yTYce_UorvAzZyGLI9FE-5">
          <mxGeometry x="170" y="60" width="100" height="80" as="geometry" />
        </mxCell>
        <mxCell id="yTYce_UorvAzZyGLI9FE-31" value="Предоставление данных &lt;br&gt;по запросу" style="points=[[0.25,0,0],[0.5,0,0],[0.75,0,0],[1,0.25,0],[1,0.5,0],[1,0.75,0],[0.75,1,0],[0.5,1,0],[0.25,1,0],[0,0.75,0],[0,0.5,0],[0,0.25,0]];shape=mxgraph.bpmn.task;whiteSpace=wrap;rectStyle=rounded;size=10;html=1;container=1;expand=0;collapsible=0;taskMarker=service;" vertex="1" parent="yTYce_UorvAzZyGLI9FE-5">
          <mxGeometry x="310" y="60" width="110" height="80" as="geometry" />
        </mxCell>
        <mxCell id="yTYce_UorvAzZyGLI9FE-91" value="Предоставление данных&lt;br&gt;по запросу" style="points=[[0.25,0,0],[0.5,0,0],[0.75,0,0],[1,0.25,0],[1,0.5,0],[1,0.75,0],[0.75,1,0],[0.5,1,0],[0.25,1,0],[0,0.75,0],[0,0.5,0],[0,0.25,0]];shape=mxgraph.bpmn.task;whiteSpace=wrap;rectStyle=rounded;size=10;html=1;container=1;expand=0;collapsible=0;taskMarker=service;" vertex="1" parent="yTYce_UorvAzZyGLI9FE-5">
          <mxGeometry x="730" y="60" width="120" height="80" as="geometry" />
        </mxCell>
        <mxCell id="yTYce_UorvAzZyGLI9FE-168" value="" style="edgeStyle=orthogonalEdgeStyle;rounded=0;orthogonalLoop=1;jettySize=auto;html=1;" edge="1" parent="yTYce_UorvAzZyGLI9FE-5" source="yTYce_UorvAzZyGLI9FE-164">
          <mxGeometry relative="1" as="geometry">
            <mxPoint x="1230" y="100" as="targetPoint" />
          </mxGeometry>
        </mxCell>
        <mxCell id="yTYce_UorvAzZyGLI9FE-164" value="Статус&amp;nbsp; Карты &quot;Получена Клиентом&quot;" style="points=[[0.25,0,0],[0.5,0,0],[0.75,0,0],[1,0.25,0],[1,0.5,0],[1,0.75,0],[0.75,1,0],[0.5,1,0],[0.25,1,0],[0,0.75,0],[0,0.5,0],[0,0.25,0]];shape=mxgraph.bpmn.task;whiteSpace=wrap;rectStyle=rounded;size=10;html=1;container=1;expand=0;collapsible=0;taskMarker=service;" vertex="1" parent="yTYce_UorvAzZyGLI9FE-5">
          <mxGeometry x="1010" y="60" width="110" height="80" as="geometry" />
        </mxCell>
        <mxCell id="yTYce_UorvAzZyGLI9FE-170" value="" style="points=[[0.145,0.145,0],[0.5,0,0],[0.855,0.145,0],[1,0.5,0],[0.855,0.855,0],[0.5,1,0],[0.145,0.855,0],[0,0.5,0]];shape=mxgraph.bpmn.event;html=1;verticalLabelPosition=bottom;labelBackgroundColor=#ffffff;verticalAlign=top;align=center;perimeter=ellipsePerimeter;outlineConnect=0;aspect=fixed;outline=end;symbol=terminate;" vertex="1" parent="yTYce_UorvAzZyGLI9FE-5">
          <mxGeometry x="1230" y="75" width="50" height="50" as="geometry" />
        </mxCell>
        <mxCell id="yTYce_UorvAzZyGLI9FE-46" value="" style="edgeStyle=elbowEdgeStyle;fontSize=12;html=1;endFill=0;startFill=0;endSize=6;startSize=6;dashed=1;dashPattern=1 4;endArrow=openThin;startArrow=openThin;rounded=0;exitX=0.595;exitY=1.031;exitDx=0;exitDy=0;exitPerimeter=0;entryX=0.645;entryY=-0.037;entryDx=0;entryDy=0;entryPerimeter=0;" edge="1" parent="1" source="yTYce_UorvAzZyGLI9FE-40" target="yTYce_UorvAzZyGLI9FE-31">
          <mxGeometry width="160" relative="1" as="geometry">
            <mxPoint x="379.5" y="517.13" as="sourcePoint" />
            <mxPoint x="379.5" y="750.13" as="targetPoint" />
          </mxGeometry>
        </mxCell>
        <mxCell id="yTYce_UorvAzZyGLI9FE-80" value="" style="edgeStyle=elbowEdgeStyle;fontSize=12;html=1;endFill=0;startFill=0;endSize=6;startSize=6;dashed=1;dashPattern=1 4;endArrow=openThin;startArrow=openThin;rounded=0;entryX=0.5;entryY=0;entryDx=0;entryDy=0;entryPerimeter=0;exitX=0.5;exitY=1;exitDx=0;exitDy=0;exitPerimeter=0;" edge="1" parent="1" source="yTYce_UorvAzZyGLI9FE-50" target="yTYce_UorvAzZyGLI9FE-49">
          <mxGeometry width="160" relative="1" as="geometry">
            <mxPoint x="415" y="310" as="sourcePoint" />
            <mxPoint x="575" y="310" as="targetPoint" />
          </mxGeometry>
        </mxCell>
        <mxCell id="yTYce_UorvAzZyGLI9FE-87" value="" style="edgeStyle=elbowEdgeStyle;fontSize=12;html=1;endFill=0;startFill=0;endSize=6;startSize=6;dashed=1;dashPattern=1 4;endArrow=openThin;startArrow=openThin;rounded=0;entryX=0.5;entryY=0;entryDx=0;entryDy=0;entryPerimeter=0;exitX=0.5;exitY=1;exitDx=0;exitDy=0;exitPerimeter=0;" edge="1" parent="1" source="yTYce_UorvAzZyGLI9FE-8" target="yTYce_UorvAzZyGLI9FE-27">
          <mxGeometry width="160" relative="1" as="geometry">
            <mxPoint x="130" y="660" as="sourcePoint" />
            <mxPoint x="290" y="660" as="targetPoint" />
          </mxGeometry>
        </mxCell>
        <mxCell id="yTYce_UorvAzZyGLI9FE-92" value="" style="edgeStyle=elbowEdgeStyle;fontSize=12;html=1;endFill=0;startFill=0;endSize=6;startSize=6;dashed=1;dashPattern=1 4;endArrow=openThin;startArrow=openThin;rounded=0;entryX=0.5;entryY=0;entryDx=0;entryDy=0;entryPerimeter=0;exitX=0.583;exitY=0.999;exitDx=0;exitDy=0;exitPerimeter=0;" edge="1" parent="1" source="yTYce_UorvAzZyGLI9FE-90" target="yTYce_UorvAzZyGLI9FE-91">
          <mxGeometry width="160" relative="1" as="geometry">
            <mxPoint x="790" y="490" as="sourcePoint" />
            <mxPoint x="850" y="570" as="targetPoint" />
          </mxGeometry>
        </mxCell>
        <mxCell id="yTYce_UorvAzZyGLI9FE-94" value="" style="edgeStyle=elbowEdgeStyle;fontSize=12;html=1;endFill=0;startFill=0;endSize=6;startSize=6;dashed=1;dashPattern=1 4;endArrow=openThin;startArrow=openThin;rounded=0;exitX=0.5;exitY=1;exitDx=0;exitDy=0;exitPerimeter=0;entryX=0.5;entryY=0;entryDx=0;entryDy=0;entryPerimeter=0;" edge="1" parent="1" source="yTYce_UorvAzZyGLI9FE-93" target="yTYce_UorvAzZyGLI9FE-90">
          <mxGeometry width="160" relative="1" as="geometry">
            <mxPoint x="690" y="370" as="sourcePoint" />
            <mxPoint x="850" y="370" as="targetPoint" />
          </mxGeometry>
        </mxCell>
        <mxCell id="yTYce_UorvAzZyGLI9FE-137" value="" style="edgeStyle=elbowEdgeStyle;fontSize=12;html=1;endFill=0;startFill=0;endSize=6;startSize=6;dashed=1;dashPattern=1 4;endArrow=openThin;startArrow=none;rounded=0;exitX=0.5;exitY=0;exitDx=0;exitDy=0;exitPerimeter=0;" edge="1" parent="1" source="yTYce_UorvAzZyGLI9FE-108" target="yTYce_UorvAzZyGLI9FE-131">
          <mxGeometry width="160" relative="1" as="geometry">
            <mxPoint x="970" y="284.5" as="sourcePoint" />
            <mxPoint x="1130" y="284.5" as="targetPoint" />
          </mxGeometry>
        </mxCell>
        <mxCell id="yTYce_UorvAzZyGLI9FE-174" value="" style="edgeStyle=elbowEdgeStyle;fontSize=12;html=1;endFill=0;startFill=0;endSize=6;startSize=6;dashed=1;dashPattern=1 4;endArrow=openThin;startArrow=openThin;rounded=0;entryX=0.5;entryY=1;entryDx=0;entryDy=0;entryPerimeter=0;" edge="1" parent="1" source="yTYce_UorvAzZyGLI9FE-164" target="yTYce_UorvAzZyGLI9FE-165">
          <mxGeometry width="160" relative="1" as="geometry">
            <mxPoint x="1060" y="760" as="sourcePoint" />
            <mxPoint x="920" y="630" as="targetPoint" />
          </mxGeometry>
        </mxCell>
        <mxCell id="yTYce_UorvAzZyGLI9FE-192" value="" style="edgeStyle=elbowEdgeStyle;fontSize=12;html=1;endFill=0;startFill=0;endSize=6;startSize=6;dashed=1;dashPattern=1 4;endArrow=openThin;startArrow=openThin;rounded=0;entryX=0;entryY=0.75;entryDx=0;entryDy=0;entryPerimeter=0;exitX=1;exitY=0.25;exitDx=0;exitDy=0;exitPerimeter=0;" edge="1" parent="1" source="yTYce_UorvAzZyGLI9FE-164" target="yTYce_UorvAzZyGLI9FE-183">
          <mxGeometry width="160" relative="1" as="geometry">
            <mxPoint x="1130" y="800" as="sourcePoint" />
            <mxPoint x="1220" y="730" as="targetPoint" />
            <Array as="points">
              <mxPoint x="1170" y="690" />
            </Array>
          </mxGeometry>
        </mxCell>
        <mxCell id="q8dqV7ErFW5JXo2_TfEL-2" value="" style="edgeStyle=elbowEdgeStyle;fontSize=12;html=1;endFill=0;startFill=0;endSize=6;startSize=6;dashed=1;dashPattern=1 4;endArrow=openThin;startArrow=none;rounded=0;exitX=0.5;exitY=0;exitDx=0;exitDy=0;exitPerimeter=0;entryX=0.375;entryY=1.038;entryDx=0;entryDy=0;entryPerimeter=0;" edge="1" parent="1" source="yTYce_UorvAzZyGLI9FE-152" target="yTYce_UorvAzZyGLI9FE-144">
          <mxGeometry width="160" relative="1" as="geometry">
            <mxPoint x="1230" y="367.06" as="sourcePoint" />
            <mxPoint x="1390" y="367.06" as="targetPoint" />
          </mxGeometry>
        </mxCell>
      </root>
    </mxGraphModel>
  </diagram>
</mxfile>
